<svg width="194" height="42" viewBox="0 0 194 42" fill="none" xmlns="http://www.w3.org/2000/svg">
<g clip-path="url(#clip0_1_2474)">
<path d="M43.7097 27.8669H40.711L40.4569 21.4745L36.6958 26.6683H36.2892L32.5282 21.4745L32.1724 27.8669H29.1737L29.8853 15.3318H30.7493L36.4417 22.8229L42.0833 15.3318H42.9473L43.7097 27.8669Z" fill="#181833"/>
<path d="M53.4173 19.6765C54.0781 20.2758 54.4339 21.2247 54.4339 22.5231V27.4672C52.8074 27.9167 51.2827 28.1664 49.9104 28.1664C46.9117 28.1664 45.387 27.2175 45.387 25.2698C45.387 23.3721 46.9117 22.4732 49.453 22.4732C49.9612 22.4732 50.6728 22.5231 51.6893 22.6729V22.4732C51.6893 21.8739 51.5368 21.4744 51.181 21.2746C50.8253 21.0748 50.2662 20.975 49.5038 20.975C48.589 20.975 47.6233 21.1248 46.6068 21.3745L46.3018 19.4268C47.6741 19.0772 48.8939 18.8775 50.0629 18.8775C51.6385 18.8275 52.7566 19.1272 53.4173 19.6765ZM50.0121 26.1688C50.5711 26.1688 51.1302 26.1188 51.6893 26.0689V24.321C50.9777 24.2211 50.3678 24.1712 49.8596 24.1712C48.6906 24.1712 48.0807 24.5207 48.0807 25.17C48.0807 25.8691 48.6398 26.1688 50.0121 26.1688Z" fill="#181833"/>
<path d="M62.82 19.0774L62.3626 21.1749C61.6002 21.0251 60.9395 20.9751 60.3296 21.0251C60.0754 21.0251 59.6688 21.1249 59.1606 21.2248V27.8669H56.416V19.8764C57.9916 19.1773 59.5164 18.8277 60.9395 18.8277C61.7527 18.7777 62.3626 18.8776 62.82 19.0774Z" fill="#181833"/>
<path d="M70.6471 27.8668L68.1058 23.8716H67.0893V27.8668H64.3447V14.2331L67.0893 14.0833V21.7741H68.1566L70.5962 19.0773H73.6457L70.2405 22.723L73.7982 27.9168H70.6471V27.8668Z" fill="#181833"/>
<path d="M76.8987 24.1711C77.102 25.4197 78.0168 26.0189 79.6432 26.0189C80.4564 26.0189 81.4729 25.8691 82.6927 25.6194L82.9977 27.3673C82.6419 27.5671 82.0828 27.7169 81.4221 27.8667C80.7614 28.0166 80.0498 28.1164 79.3383 28.1164C77.7627 28.1164 76.4921 27.667 75.5264 26.818C74.6115 25.969 74.1033 24.8703 74.1033 23.5219C74.1033 22.1735 74.5607 21.0249 75.4756 20.1759C76.3904 19.277 77.5594 18.8774 79.0333 18.8774C80.4056 18.8774 81.4729 19.277 82.337 20.0261C83.201 20.8251 83.6076 21.8239 83.6076 23.0225C83.6076 23.422 83.5568 23.8216 83.5059 24.1711H76.8987ZM80.9139 22.4232C80.9139 22.0237 80.7614 21.6242 80.4564 21.3245C80.1515 21.0249 79.6432 20.8751 78.9317 20.8751C77.8643 20.8751 77.1528 21.3745 76.8987 22.4232H80.9139Z" fill="#181833"/>
<path d="M91.333 25.6694L91.5363 27.5672C90.6215 27.8668 89.7066 28.0166 88.7918 28.0166C87.9786 28.0166 87.3178 27.7669 86.8096 27.3175C86.3013 26.868 86.098 26.1189 86.098 25.1201V21.0249H84.6749L84.8274 19.0273H86.098V16.78L88.8426 16.4304V19.0273H91.5872L91.4347 21.0249H88.8426V24.8204C88.8426 25.4697 89.0967 25.7194 89.8083 25.7194C90.2657 25.7693 90.774 25.7693 91.333 25.6694Z" fill="#181833"/>
<path d="M112.07 27.8669H109.071L108.817 21.4745L105.056 26.6683H104.649L100.939 21.4745L100.583 27.8669H97.5845L98.296 15.3318H99.1601L104.852 22.8229L110.494 15.3318H111.358L112.07 27.8669Z" fill="#181833"/>
<path d="M121.777 19.6765C122.438 20.2758 122.794 21.2247 122.794 22.5231V27.4672C121.167 27.9167 119.643 28.1664 118.27 28.1664C115.272 28.1664 113.747 27.2175 113.747 25.2698C113.747 23.3721 115.272 22.4732 117.813 22.4732C118.321 22.4732 119.033 22.5231 120.049 22.6729V22.4732C120.049 21.8739 119.897 21.4744 119.541 21.2746C119.185 21.0748 118.626 20.975 117.864 20.975C116.949 20.975 115.983 21.1248 114.967 21.3745L114.662 19.4268C116.034 19.0772 117.254 18.8775 118.423 18.8775C119.998 18.8275 121.117 19.1272 121.777 19.6765ZM118.372 26.1688C118.931 26.1688 119.49 26.1188 120.049 26.0689V24.321C119.338 24.2211 118.728 24.1712 118.22 24.1712C117.051 24.1712 116.441 24.5207 116.441 25.17C116.492 25.8691 117.051 26.1688 118.372 26.1688Z" fill="#181833"/>
<path d="M131.18 27.8668L128.639 23.8716H127.622V27.8668H124.878V14.2331L127.622 14.0833V21.7741H128.69L131.129 19.0773H134.179L130.773 22.723L134.331 27.9168H131.18V27.8668Z" fill="#181833"/>
<path d="M138.397 17.5291H135.602V14.8323H138.397V17.5291ZM138.346 27.8668H135.602V19.0772H138.346V27.8668Z" fill="#181833"/>
<path d="M149.528 22.1237V27.8668H146.783V22.723C146.783 22.0737 146.682 21.6243 146.529 21.3746C146.326 21.1249 145.97 20.975 145.36 20.975C144.7 20.975 144.039 21.0749 143.276 21.2247V27.9168H140.532V19.9263C142.209 19.2271 143.886 18.8775 145.665 18.8775C148.105 18.8276 149.528 19.9762 149.528 22.1237Z" fill="#181833"/>
<path d="M160.608 28.9157C160.608 29.8645 160.15 30.6636 159.185 31.2629C158.219 31.8622 156.948 32.1618 155.322 32.1618C153.899 32.1618 152.73 31.9121 151.917 31.4626C151.053 30.9632 150.646 30.3639 150.646 29.6148C150.646 28.8158 151.103 28.1666 151.967 27.6172C151.663 27.3176 151.459 26.8681 151.459 26.3687C151.459 25.7195 151.815 25.1701 152.577 24.7207C151.815 24.1214 151.408 23.2724 151.408 22.2236C151.408 21.1749 151.815 20.3259 152.577 19.7266C153.34 19.1273 154.356 18.8277 155.627 18.8277C156.186 18.8277 156.745 18.8776 157.253 19.0274C157.609 17.6291 158.473 16.9299 159.795 16.9299H160.404L160.455 19.0274H159.896C159.337 19.0274 158.931 19.2771 158.727 19.7765C159.388 20.3758 159.744 21.1749 159.744 22.1737C159.744 23.2224 159.388 24.0215 158.626 24.6208C157.863 25.2201 156.847 25.5696 155.576 25.5696C155.017 25.5696 154.458 25.5197 154 25.3699C153.848 25.4698 153.797 25.6196 153.797 25.8193C153.797 26.0691 153.95 26.2189 154.305 26.2688C154.356 26.2688 154.814 26.3188 155.576 26.3687C156.338 26.4686 157.152 26.5185 157.914 26.6184C159.693 26.8182 160.608 27.5673 160.608 28.9157ZM157.863 29.2652C157.863 28.8158 157.558 28.616 156.847 28.5161L153.797 28.2165C153.492 28.5161 153.289 28.8158 153.289 29.1154C153.289 29.7647 154 30.2141 155.474 30.2141C157.05 30.2141 157.863 29.8645 157.863 29.2652ZM154.153 22.2236C154.153 23.1226 154.712 23.6719 155.525 23.6719C156.44 23.6719 156.898 23.1226 156.898 22.2236C156.898 21.3247 156.44 20.8752 155.525 20.8752C154.61 20.8253 154.153 21.3746 154.153 22.2236Z" fill="#181833"/>
<path d="M175.652 18.9773C175.652 20.3257 175.195 21.4244 174.229 22.2734C173.263 23.1224 171.891 23.5719 170.112 23.5719C169.655 23.5719 169.146 23.5719 168.537 23.5219V27.8668H166.808V15.3816C167.063 15.3816 167.723 15.3317 168.791 15.3317C169.858 15.2817 170.57 15.2817 170.925 15.2817C174.076 15.2817 175.703 16.4803 175.652 18.9773ZM173.873 19.0772C173.873 18.2282 173.619 17.6289 173.162 17.2794C172.704 16.9298 171.891 16.73 170.722 16.73C170.57 16.73 169.807 16.78 168.537 16.8299V21.9738C169.197 22.0237 169.756 22.0237 170.214 22.0237C172.653 22.0237 173.873 21.0249 173.873 19.0772Z" fill="#181833"/>
<path d="M183.174 19.0273L183.123 20.5255C182.361 20.4256 181.65 20.4256 181.04 20.4755C180.633 20.5255 180.074 20.6254 179.413 20.8751V27.9167H177.736V20.0261C178.549 19.6265 179.312 19.3269 179.921 19.1271C180.531 18.9773 181.243 18.8774 181.954 18.8774C182.158 18.8774 182.564 18.9274 183.174 19.0273Z" fill="#181833"/>
<path d="M185.614 26.7682C184.699 25.9192 184.242 24.8205 184.242 23.4721C184.242 22.1736 184.699 21.0749 185.665 20.2259C186.58 19.327 187.749 18.9275 189.121 18.9275C190.544 18.9275 191.764 19.377 192.628 20.2259C193.543 21.0749 194 22.1736 194 23.522C194 24.8205 193.543 25.9192 192.577 26.7682C191.611 27.6671 190.493 28.0666 189.121 28.0666C187.647 28.0666 186.478 27.6171 185.614 26.7682ZM189.121 26.6683C190.036 26.6683 190.798 26.3686 191.408 25.7693C191.967 25.1701 192.272 24.4209 192.272 23.522C192.272 22.6231 191.967 21.874 191.408 21.2747C190.849 20.6754 190.086 20.3758 189.121 20.3758C188.155 20.3758 187.393 20.6754 186.834 21.2747C186.275 21.874 185.97 22.6231 185.97 23.522C185.97 24.4209 186.275 25.1701 186.834 25.7693C187.444 26.3686 188.206 26.6683 189.121 26.6683Z" fill="#181833"/>
<path d="M18.8053 14.5327V9.33888H18.5004V14.5327H16.2641L12.8588 17.8787V7.89061H10.6733V0H10.3684V7.89061H8.13204V17.8787L4.72675 14.5327H2.49044V9.33888H2.18549V14.5327H0V27.9667H2.18549V35.258H2.49044V27.9667H4.72675V20.0761L8.13204 23.4221V31.912H10.3684V42H10.6733V31.912H12.8588V23.4221L16.2641 20.0761V27.9667H18.5004V35.258H18.8053V27.9667H20.9908V14.5327H18.8053Z" fill="#33CC66"/>
</g>
<defs>
<clipPath id="clip0_1_2474">
<rect width="194" height="42" fill="white"/>
</clipPath>
</defs>
</svg>
